<svg width="180" height="36" viewBox="0 0 180 36" fill="none" xmlns="http://www.w3.org/2000/svg">
<path d="M50.0781 19.5122H43.2293V28H38.4V8.18537H43.2293V15.9415H50.0781V8.18537H54.8781V28H50.0781V19.5122ZM70.4968 20.9463C70.4968 22.1171 70.5749 23.0927 70.731 23.8732C70.8871 24.6537 71.0724 25.278 71.2871 25.7463C71.5212 26.3122 71.7944 26.7512 72.1066 27.0634L68.3895 28.2341C68.1749 28.039 67.9797 27.7951 67.8041 27.5024C67.648 27.2488 67.4919 26.9463 67.3358 26.5951C67.1993 26.2244 67.0822 25.7951 66.9846 25.3073C66.6529 26.2244 66.1651 26.9366 65.5212 27.4439C64.8773 27.9317 64.0285 28.1756 62.9749 28.1756C62.0188 28.1756 61.1797 28 60.4578 27.6488C59.7554 27.2976 59.17 26.8098 58.7017 26.1854C58.2334 25.5415 57.8822 24.7707 57.648 23.8732C57.4334 22.9756 57.3261 21.9805 57.3261 20.8878C57.3261 19.7756 57.5017 18.7415 57.8529 17.7854C58.2236 16.8293 58.731 16.0098 59.3749 15.3268C60.0188 14.6244 60.7895 14.078 61.6871 13.6878C62.5846 13.2976 63.5797 13.1024 64.6724 13.1024C65.2773 13.1024 65.9212 13.1512 66.6041 13.2488C67.2871 13.3268 67.9115 13.4244 68.4773 13.5415C69.0432 13.639 69.5115 13.7366 69.8822 13.8341C70.2724 13.9122 70.4773 13.9512 70.4968 13.9512V20.9463ZM63.7358 24.7805C64.0285 24.7805 64.3017 24.6537 64.5554 24.4C64.8285 24.1463 65.0627 23.8049 65.2578 23.3756C65.4529 22.9463 65.5993 22.4585 65.6968 21.9122C65.8139 21.3463 65.8724 20.7512 65.8724 20.1268V16.7317C65.7358 16.6732 65.5407 16.6244 65.2871 16.5854C65.0529 16.5268 64.848 16.4976 64.6724 16.4976C64.2041 16.4976 63.8139 16.6049 63.5017 16.8195C63.1895 17.0146 62.9358 17.2976 62.7407 17.6683C62.5651 18.0195 62.4383 18.4488 62.3602 18.9561C62.2822 19.4634 62.2432 20.0098 62.2432 20.5951C62.2432 21.1415 62.2529 21.6683 62.2724 22.1756C62.2919 22.6634 62.3505 23.1024 62.448 23.4927C62.5651 23.8829 62.7212 24.1951 62.9163 24.4293C63.1115 24.6634 63.3846 24.7805 63.7358 24.7805ZM77.6952 28.1171C76.583 28.1171 75.6855 27.8341 75.0025 27.2683C74.3196 26.6829 73.9781 25.8634 73.9781 24.8098V13.3073H78.6025V23.4927C78.6025 23.9415 78.6708 24.2439 78.8074 24.4C78.944 24.5561 79.1489 24.6341 79.422 24.6341C79.5781 24.6341 79.7342 24.6244 79.8903 24.6049C80.0464 24.5659 80.144 24.5366 80.183 24.5171L80.5928 27.4146C80.5733 27.4341 80.4855 27.4829 80.3294 27.561C80.1733 27.6195 79.9684 27.6976 79.7147 27.7951C79.4611 27.8732 79.1586 27.9415 78.8074 28C78.4562 28.078 78.0855 28.1171 77.6952 28.1171ZM76.3489 6.25366C77.1684 6.25366 77.7928 6.49756 78.222 6.98537C78.6513 7.47317 78.866 8.08781 78.866 8.82927C78.866 9.59024 78.6416 10.2244 78.1928 10.7317C77.7635 11.239 77.1099 11.4927 76.2318 11.4927C75.4123 11.4927 74.7781 11.2488 74.3294 10.761C73.9001 10.2537 73.6855 9.65854 73.6855 8.97561C73.6855 8.19512 73.9099 7.55122 74.3586 7.0439C74.8074 6.51707 75.4708 6.25366 76.3489 6.25366ZM82.4705 7.57073L87.0949 6.78049V14.5659C87.8559 13.5902 88.8705 13.1024 90.1388 13.1024C91.0559 13.1024 91.8559 13.278 92.5388 13.6293C93.2413 13.9805 93.8169 14.478 94.2656 15.122C94.7339 15.7463 95.0754 16.5073 95.29 17.4049C95.5242 18.3024 95.6413 19.3073 95.6413 20.4195C95.6413 21.5317 95.4559 22.5659 95.0852 23.522C94.7339 24.4585 94.2364 25.278 93.5925 25.9805C92.9486 26.6634 92.1778 27.2 91.2803 27.5902C90.3827 27.9805 89.3876 28.1756 88.2949 28.1756C87.69 28.1756 87.0559 28.1366 86.3925 28.0585C85.7486 27.9805 85.1437 27.8927 84.5778 27.7951C84.0315 27.6976 83.5632 27.6098 83.173 27.5317C82.7827 27.4341 82.5486 27.3659 82.4705 27.3268V7.57073ZM89.2315 16.4976C88.9193 16.4976 88.6266 16.6341 88.3535 16.9073C88.0998 17.1805 87.8754 17.5415 87.6803 17.9902C87.5047 18.439 87.3583 18.9659 87.2413 19.5707C87.1437 20.1756 87.0949 20.8 87.0949 21.4439V24.5756C87.212 24.6146 87.3876 24.6634 87.6217 24.722C87.8754 24.761 88.0998 24.7805 88.2949 24.7805C88.7632 24.7805 89.1535 24.6829 89.4656 24.4878C89.7778 24.2732 90.0217 23.9902 90.1974 23.639C90.3925 23.2683 90.5291 22.839 90.6071 22.3512C90.6852 21.8439 90.7242 21.2976 90.7242 20.7122C90.7242 20.1659 90.7144 19.639 90.6949 19.1317C90.6754 18.6244 90.6071 18.1756 90.49 17.7854C90.3925 17.3951 90.2461 17.0829 90.051 16.8488C89.8559 16.6146 89.5827 16.4976 89.2315 16.4976ZM104.164 13.0146C106.486 13.0146 108.173 13.678 109.227 15.0049C110.3 16.3317 110.837 18.1659 110.837 20.5073C110.837 21.6195 110.69 22.6537 110.398 23.6098C110.125 24.5463 109.695 25.3659 109.11 26.0683C108.544 26.7512 107.822 27.2976 106.944 27.7073C106.086 28.0976 105.081 28.2927 103.929 28.2927C102.759 28.2927 101.744 28.1268 100.886 27.7951C100.047 27.4439 99.3538 26.9463 98.8075 26.3024C98.2807 25.6585 97.8807 24.878 97.6075 23.961C97.3538 23.0244 97.227 21.9805 97.227 20.8293C97.227 19.7171 97.3636 18.6829 97.6368 17.7268C97.9294 16.7707 98.3587 15.9512 98.9246 15.2683C99.5099 14.5659 100.232 14.0195 101.09 13.6293C101.968 13.2195 102.993 13.0146 104.164 13.0146ZM103.9 16.4976C103.549 16.4976 103.256 16.6049 103.022 16.8195C102.788 17.0146 102.603 17.2976 102.466 17.6683C102.349 18.0195 102.261 18.439 102.203 18.9268C102.164 19.4146 102.144 19.9415 102.144 20.5073C102.144 21.0927 102.173 21.6488 102.232 22.1756C102.29 22.7024 102.388 23.161 102.525 23.5512C102.681 23.9415 102.895 24.2537 103.168 24.4878C103.442 24.7024 103.783 24.8098 104.193 24.8098C104.544 24.8098 104.837 24.7024 105.071 24.4878C105.305 24.2732 105.481 23.9902 105.598 23.639C105.734 23.2683 105.822 22.839 105.861 22.3512C105.92 21.8634 105.949 21.3463 105.949 20.8C105.949 20.1951 105.92 19.639 105.861 19.1317C105.803 18.6049 105.695 18.1463 105.539 17.7561C105.403 17.3659 105.198 17.0634 104.925 16.8488C104.651 16.6146 104.31 16.4976 103.9 16.4976ZM119.369 13.0146C121.691 13.0146 123.379 13.678 124.433 15.0049C125.506 16.3317 126.043 18.1659 126.043 20.5073C126.043 21.6195 125.896 22.6537 125.604 23.6098C125.33 24.5463 124.901 25.3659 124.316 26.0683C123.75 26.7512 123.028 27.2976 122.15 27.7073C121.291 28.0976 120.286 28.2927 119.135 28.2927C117.964 28.2927 116.95 28.1268 116.091 27.7951C115.252 27.4439 114.56 26.9463 114.013 26.3024C113.486 25.6585 113.086 24.878 112.813 23.961C112.56 23.0244 112.433 21.9805 112.433 20.8293C112.433 19.7171 112.569 18.6829 112.843 17.7268C113.135 16.7707 113.564 15.9512 114.13 15.2683C114.716 14.5659 115.438 14.0195 116.296 13.6293C117.174 13.2195 118.199 13.0146 119.369 13.0146ZM119.106 16.4976C118.755 16.4976 118.462 16.6049 118.228 16.8195C117.994 17.0146 117.808 17.2976 117.672 17.6683C117.555 18.0195 117.467 18.439 117.408 18.9268C117.369 19.4146 117.35 19.9415 117.35 20.5073C117.35 21.0927 117.379 21.6488 117.438 22.1756C117.496 22.7024 117.594 23.161 117.73 23.5512C117.886 23.9415 118.101 24.2537 118.374 24.4878C118.647 24.7024 118.989 24.8098 119.399 24.8098C119.75 24.8098 120.043 24.7024 120.277 24.4878C120.511 24.2732 120.686 23.9902 120.804 23.639C120.94 23.2683 121.028 22.839 121.067 22.3512C121.125 21.8634 121.155 21.3463 121.155 20.8C121.155 20.1951 121.125 19.639 121.067 19.1317C121.008 18.6049 120.901 18.1463 120.745 17.7561C120.608 17.3659 120.404 17.0634 120.13 16.8488C119.857 16.6146 119.516 16.4976 119.106 16.4976ZM133.141 6.78049V14.4488C133.512 14.1171 134 13.8146 134.604 13.5415C135.209 13.2488 136 13.1024 136.975 13.1024C137.58 13.1024 138.146 13.1902 138.673 13.3659C139.2 13.5415 139.648 13.8049 140.019 14.1561C140.409 14.4878 140.712 14.8976 140.926 15.3854C141.161 15.8537 141.278 16.3902 141.278 16.9951C141.278 17.8732 141.112 18.6049 140.78 19.1902C140.468 19.7561 140.117 20.2049 139.726 20.5366C139.278 20.9268 138.77 21.239 138.204 21.4732L142.302 28H137.034C136.175 26.5561 135.482 25.239 134.956 24.0488C134.429 22.839 134.068 21.7171 133.873 20.6829L133.843 20.2439C133.98 20.2244 134.204 20.1756 134.517 20.0976C134.829 20 135.141 19.8634 135.453 19.6878C135.785 19.4927 136.068 19.2488 136.302 18.9561C136.556 18.6634 136.682 18.3122 136.682 17.9024C136.682 17.4537 136.565 17.1122 136.331 16.878C136.117 16.6244 135.834 16.4976 135.482 16.4976C135.034 16.4976 134.653 16.6049 134.341 16.8195C134.048 17.0341 133.814 17.278 133.639 17.5512C133.463 17.8244 133.336 18.0976 133.258 18.3707C133.18 18.6244 133.141 18.8098 133.141 18.9268V28H128.517V7.57073L133.141 6.78049Z" fill="black"/>
<circle cx="14.6341" cy="17.5609" r="14.6341" fill="#6255A5"/>
<path d="M17.0992 17.9073H12.99V23H10.0924V11.1112H12.99V15.7649H17.0992V11.1112H19.9792V23H17.0992V17.9073Z" fill="white"/>
</svg>
